<?xml version="1.0" standalone="no"?>
<!DOCTYPE svg PUBLIC "-//W3C//DTD SVG 20010904//EN"
 "http://www.w3.org/TR/2001/REC-SVG-20010904/DTD/svg10.dtd">
<svg version="1.0" xmlns="http://www.w3.org/2000/svg"
 width="571.000000pt" height="571.000000pt" viewBox="0 0 571.000000 571.000000"
 preserveAspectRatio="xMidYMid meet">
<metadata>
Created by potrace 1.14, written by Peter Selinger 2001-2017
</metadata>
<g transform="translate(0.000000,571.000000) scale(0.100000,-0.100000)"
fill="#000000" stroke="none">
<path d="M1820 5701 c0 -9 -79 -36 -96 -33 -5 1 -20 -7 -32 -18 -12 -12 -35
-20 -55 -20 -21 0 -41 -7 -51 -19 -11 -12 -25 -17 -38 -13 -13 3 -19 1 -15 -5
3 -5 2 -23 -3 -39 -5 -17 -9 -21 -9 -11 -1 14 -6 17 -23 11 -30 -9 -27 -4 -35
-59 -5 -39 -3 -50 11 -61 16 -11 15 -13 -6 -28 -25 -18 -26 -25 -7 -37 11 -6
10 -9 -4 -15 -9 -3 -14 -10 -11 -15 3 -5 -3 -10 -13 -11 -24 -2 -46 -5 -55 -8
-19 -6 -30 -8 -55 -9 -35 -1 -24 -12 13 -13 16 0 142 9 279 21 378 32 544 42
890 56 153 6 238 15 245 25 6 10 269 35 277 26 4 -3 -3 -6 -15 -6 -12 0 -22
-4 -22 -8 0 -9 151 -6 345 8 135 10 199 13 520 25 83 3 173 8 202 11 l52 5 -4
-60 c-2 -33 -11 -93 -19 -133 -15 -75 -24 -158 -30 -299 -2 -44 -7 -83 -10
-86 -3 -4 -6 -1 -6 5 0 7 -9 12 -21 12 -12 0 -17 4 -14 11 4 6 -2 5 -14 -3
-17 -10 -25 -10 -41 0 -27 16 -48 15 -67 -4 -10 -10 -25 -13 -40 -9 -14 3 -30
1 -37 -4 -8 -7 -347 -11 -1008 -12 -547 0 -1013 -5 -1036 -9 -24 -4 -44 -4
-47 -1 -5 9 -486 4 -645 -7 -69 -5 -169 -8 -222 -8 -84 1 -98 -1 -102 -16 -2
-10 -16 -22 -30 -28 -15 -5 -31 -21 -36 -35 -5 -14 -16 -25 -25 -25 -17 0 -20
-16 -5 -25 6 -4 8 -11 4 -16 -3 -5 -10 -7 -15 -3 -6 3 -13 -3 -16 -15 -3 -11
-18 -26 -33 -33 -21 -9 -29 -21 -32 -45 -3 -22 -1 -30 6 -23 6 6 15 10 21 10
5 0 4 -4 -4 -9 -22 -14 3 -41 31 -33 12 3 19 1 16 -4 -4 -5 24 -10 60 -11 37
0 148 -6 247 -11 122 -7 182 -7 186 0 4 7 9 7 13 -1 4 -6 20 -8 36 -4 21 4 30
2 30 -7 0 -9 11 -11 40 -6 25 4 40 2 40 -4 0 -5 18 -10 40 -10 22 0 40 -5 40
-11 0 -7 11 -8 32 -4 56 13 105 13 142 0 26 -9 48 -10 69 -4 54 15 101 11 120
-11 18 -21 37 -27 37 -11 0 17 41 23 63 9 28 -18 90 -36 143 -41 23 -3 55 -15
72 -27 24 -18 40 -21 81 -19 31 3 52 0 55 -7 2 -6 16 -9 29 -7 14 3 28 0 31
-6 4 -6 0 -11 -8 -11 -9 0 -16 -4 -16 -8 0 -5 -26 -19 -57 -32 -39 -15 -79
-43 -121 -84 l-64 -61 6 -62 c7 -85 33 -131 100 -177 53 -36 59 -38 107 -32
29 4 93 23 143 42 122 48 132 50 134 27 1 -10 2 -64 2 -120 0 -85 3 -110 24
-156 31 -72 99 -142 151 -156 54 -15 159 -14 220 3 138 36 282 156 371 308 54
93 64 145 37 198 -15 30 -23 35 -51 33 -18 0 -51 -13 -72 -27 -42 -28 -65 -32
-75 -16 -3 6 -17 10 -30 10 -18 0 -22 4 -18 19 5 21 -12 37 -22 21 -8 -13 -35
-13 -35 0 0 6 5 10 11 10 17 0 40 28 29 35 -10 6 -90 -64 -90 -79 0 -6 5 -5
12 2 16 16 31 15 25 -2 -7 -17 11 -36 35 -36 15 0 18 -9 18 -54 0 -30 4 -66
10 -81 7 -17 7 -24 0 -20 -6 3 -10 0 -10 -8 0 -21 -71 -82 -128 -111 -73 -37
-159 -59 -208 -53 -54 6 -74 21 -74 56 0 20 2 23 10 11 5 -8 10 -10 11 -5 1
10 4 23 9 40 1 6 3 15 4 22 3 27 113 137 204 206 165 123 162 117 112 211 -24
45 -27 56 -15 56 9 0 14 4 11 9 -3 4 -18 6 -33 4 -22 -4 -25 -2 -13 6 19 13
57 14 65 2 3 -6 63 -10 133 -10 71 0 141 -5 156 -11 15 -5 38 -10 50 -10 13 0
29 -7 36 -15 10 -11 33 -14 118 -11 59 3 131 7 160 11 45 5 61 2 105 -20 29
-14 60 -31 69 -38 14 -9 22 -9 38 1 12 7 20 8 20 2 0 -5 4 -10 9 -10 12 0 9
33 -4 42 -5 4 9 8 33 8 23 0 42 -4 42 -10 0 -5 16 -10 35 -10 22 0 43 -8 55
-20 11 -11 27 -20 36 -20 9 0 27 -11 40 -25 29 -32 36 -31 75 5 22 20 35 26
40 18 5 -8 12 -6 24 5 17 17 62 22 80 9 6 -4 15 -16 21 -27 7 -11 20 -19 30
-17 48 8 124 -7 124 -24 0 -8 8 -14 18 -14 11 0 38 -19 60 -42 35 -35 48 -42
79 -41 22 1 40 7 45 17 5 9 17 16 26 16 23 1 60 33 71 62 7 18 16 24 33 22 12
-1 26 -3 31 -3 4 -1 7 -8 7 -16 0 -18 26 -20 33 -2 3 10 9 9 26 0 11 -7 28
-13 36 -13 8 0 15 -4 15 -9 0 -5 16 -12 35 -15 24 -5 35 -12 35 -24 0 -13 2
-14 9 -4 6 11 15 9 42 -10 27 -18 33 -29 31 -50 -2 -15 2 -37 8 -48 8 -14 8
-25 2 -33 -21 -25 -1 -65 42 -85 44 -21 65 -19 45 4 -9 11 -8 14 4 14 9 0 19
9 22 20 3 11 10 20 15 20 5 0 16 7 24 16 21 20 92 10 106 -16 5 -9 7 -20 4
-22 -8 -9 37 -119 47 -113 5 4 9 1 9 -6 0 -6 8 -18 18 -25 15 -12 15 -13 1
-14 -12 0 -18 -11 -21 -40 -2 -22 0 -40 4 -40 5 0 8 -11 8 -24 0 -14 6 -31 13
-38 7 -7 16 -20 19 -28 6 -17 74 -57 82 -49 3 3 0 20 -7 38 -10 28 -10 34 6
42 11 7 15 18 12 32 -3 12 -1 29 5 37 9 13 11 13 20 0 6 -9 10 -10 10 -3 0 6
-13 20 -30 30 -16 9 -30 21 -30 26 0 5 -7 7 -15 3 -8 -3 -15 -1 -15 5 0 6 -10
8 -22 4 -16 -4 -19 -3 -10 3 17 11 104 3 113 -11 4 -5 5 23 3 63 l-3 73 55 -6
54 -6 0 880 c0 484 -4 878 -8 875 -5 -3 -72 -6 -150 -7 -78 0 -145 -5 -148
-10 -4 -6 -10 -6 -17 -1 -15 12 -128 12 -121 0 7 -11 -3 -10 -28 3 -11 6 -18
7 -15 2 3 -4 -56 -8 -131 -8 -182 -1 -793 -15 -862 -20 -77 -6 -99 1 -92 28 3
12 16 39 29 59 27 43 29 56 8 38 -8 -7 -15 -19 -15 -26 0 -8 -6 -11 -15 -8 -9
4 -15 0 -15 -8 0 -7 -9 -14 -20 -15 -21 -2 -35 27 -25 56 5 16 -1 20 -40 25
-25 4 -45 11 -45 17 0 12 -56 11 -103 -2 -28 -7 -42 -7 -52 1 -15 12 -2025 14
-2025 1z m2310 -118 c0 -14 -19 -38 -25 -32 -8 8 5 39 16 39 5 0 9 -3 9 -7z
m-5 -53 c3 -6 -1 -7 -9 -4 -18 7 -21 14 -7 14 6 0 13 -4 16 -10z m-1002 -97
c-7 -2 -21 -2 -30 0 -10 3 -4 5 12 5 17 0 24 -2 18 -5z m44 -9 c-3 -3 -12 -4
-19 -1 -8 3 -5 6 6 6 11 1 17 -2 13 -5z m-900 -1050 c-3 -3 -12 -4 -19 -1 -8
3 -5 6 6 6 11 1 17 -2 13 -5z m276 -61 c18 6 62 -42 49 -55 -8 -8 -6 -15 5
-26 20 -21 68 -5 68 23 0 15 7 20 30 22 17 1 53 4 80 7 l50 5 -40 -10 c-22 -6
-53 -12 -70 -14 -48 -4 -51 -6 -30 -14 17 -7 13 -12 -30 -34 -104 -54 -161
-80 -190 -88 -28 -8 -29 -7 -11 6 16 12 17 15 4 15 -8 0 -27 -11 -42 -25 -60
-55 -215 -112 -260 -96 -61 24 -44 52 69 112 86 46 156 93 199 135 30 30 40
34 47 23 8 -12 10 -12 8 1 -4 39 0 43 27 26 14 -10 30 -16 37 -13z m334 11
c-3 -3 -12 -4 -19 -1 -8 3 -5 6 6 6 11 1 17 -2 13 -5z m-32 -15 c13 -6 4 -7
-30 -3 -27 4 -52 8 -54 10 -9 8 65 2 84 -7z m-110 -9 c3 -5 1 -10 -4 -10 -6 0
-11 5 -11 10 0 6 2 10 4 10 3 0 8 -4 11 -10z m-105 -54 c0 -3 -4 -8 -10 -11
-5 -3 -10 -1 -10 4 0 6 5 11 10 11 6 0 10 -2 10 -4z m-60 -210 c0 -3 -4 -8
-10 -11 -5 -3 -10 -1 -10 4 0 6 5 11 10 11 6 0 10 -2 10 -4z m-30 -26 c0 -5
-5 -10 -11 -10 -5 0 -7 5 -4 10 3 6 8 10 11 10 2 0 4 -4 4 -10z m2650 -114 c0
-8 -4 -18 -10 -21 -5 -3 -10 3 -10 14 0 12 5 21 10 21 6 0 10 -6 10 -14z"/>
<path d="M2948 5403 c6 -2 18 -2 25 0 6 3 1 5 -13 5 -14 0 -19 -2 -12 -5z"/>
<path d="M1225 5300 l-60 -7 57 -1 c31 -1 60 3 63 8 3 6 5 9 3 8 -2 -1 -30 -4
-63 -8z"/>
<path d="M1128 5283 c7 -3 16 -2 19 1 4 3 -2 6 -13 5 -11 0 -14 -3 -6 -6z"/>
<path d="M3966 5199 c-11 -21 -12 -37 -6 -55 10 -26 21 -29 51 -14 21 12 27
35 7 27 -9 -3 -13 5 -13 24 0 16 3 29 8 29 4 0 7 5 7 10 0 23 -39 8 -54 -21z
m24 -26 c-1 -24 -2 -26 -11 -10 -5 9 -7 22 -4 27 10 17 15 11 15 -17z"/>
<path d="M2778 5178 c-18 -15 -29 -65 -19 -92 7 -19 8 -19 29 2 15 15 22 34
22 62 0 42 -6 48 -32 28z"/>
<path d="M1832 5138 c-23 -23 -6 -63 21 -52 20 7 21 23 3 46 -10 13 -15 15
-24 6z"/>
<path d="M1130 5060 c0 -5 5 -10 10 -10 6 0 10 5 10 10 0 6 -4 10 -10 10 -5 0
-10 -4 -10 -10z"/>
<path d="M1148 4503 c6 -2 18 -2 25 0 6 3 1 5 -13 5 -14 0 -19 -2 -12 -5z"/>
<path d="M751 4283 c-23 -15 -24 -20 -18 -102 6 -85 67 -371 108 -506 85 -282
276 -728 348 -814 55 -66 109 -161 138 -244 58 -168 111 -247 199 -297 50 -28
58 -30 72 -17 9 9 14 33 14 59 -3 163 138 559 287 807 28 46 49 86 47 88 -7 7
-120 -138 -158 -202 -68 -114 -98 -184 -118 -277 -38 -176 -84 -278 -126 -278
-21 0 -17 14 12 41 48 45 78 130 99 279 13 95 66 210 137 296 22 27 57 69 77
94 41 50 66 75 242 245 68 66 153 142 189 168 95 70 100 75 100 96 0 58 -44
95 -125 106 -180 23 -387 102 -631 240 -60 35 -269 124 -354 151 -212 69 -488
104 -539 67z m301 -336 c51 -25 147 -85 213 -132 111 -80 194 -130 202 -121 2
2 -29 26 -69 54 -40 28 -100 79 -133 113 -58 62 -55 62 13 3 134 -115 283
-197 364 -198 29 0 70 3 91 8 46 10 44 -8 -6 -40 -48 -32 -102 -37 -175 -14
-59 17 -64 17 -68 2 -62 -195 -147 -248 -333 -209 -68 15 -82 37 -16 27 24 -4
47 -5 50 -2 2 3 -4 17 -14 31 -37 53 -92 174 -103 227 -12 58 -27 68 -52 32
-24 -35 -32 4 -9 44 26 45 74 57 139 34 79 -28 84 -29 84 -20 0 9 -17 22 -138
103 -72 49 -136 76 -202 85 -19 2 -36 5 -38 5 -2 1 0 6 4 12 14 23 102 3 196
-44z m882 -113 c25 -10 18 -35 -19 -78 l-35 -39 0 39 c0 76 13 94 54 78z
m-1016 -250 c45 -155 212 -545 257 -602 15 -19 42 -43 60 -53 23 -14 42 -40
65 -90 18 -39 30 -73 26 -76 -3 -3 -14 15 -25 40 -14 32 -33 54 -61 72 -41 26
-96 101 -129 178 -10 23 -33 74 -51 112 -72 157 -161 404 -175 490 -11 64 3
36 33 -71z m894 -338 c-20 -43 -55 -83 -201 -221 -69 -66 -130 -160 -162 -251
-35 -98 -9 -219 67 -319 37 -48 25 -55 -16 -8 -50 57 -103 177 -108 244 -5 73
24 174 72 247 29 43 32 52 17 52 -10 0 -44 -18 -75 -40 -32 -23 -63 -39 -68
-38 -6 2 17 29 50 60 41 37 96 73 169 109 91 46 120 66 188 135 44 44 82 79
83 78 2 -1 -5 -23 -16 -48z"/>
<path d="M1183 3752 c-13 -2 -32 -15 -44 -30 -17 -22 -20 -36 -16 -78 15 -146
157 -259 241 -193 91 71 -60 322 -181 301z"/>
<path d="M1400 3670 c0 -16 23 -60 32 -60 12 0 10 44 -4 58 -14 14 -28 16 -28
2z"/>
<path d="M2951 4264 c0 -11 3 -14 6 -6 3 7 2 16 -1 19 -3 4 -6 -2 -5 -13z"/>
<path d="M4240 4175 c0 -13 4 -14 20 -5 11 6 20 13 20 15 0 3 -9 5 -20 5 -11
0 -20 -7 -20 -15z"/>
<path d="M617 4069 c-11 -43 41 -264 99 -424 92 -248 164 -431 215 -540 20
-44 67 -152 104 -240 38 -88 81 -175 97 -193 34 -40 61 -92 79 -152 18 -64
129 -249 129 -217 0 3 -43 94 -96 203 -53 110 -120 254 -150 321 -29 67 -58
130 -63 140 -40 78 -84 180 -116 271 -14 41 -34 95 -44 120 -10 26 -29 74 -41
107 -12 33 -28 76 -35 95 -33 89 -88 299 -99 377 -9 66 -47 153 -66 153 -4 0
-10 -9 -13 -21z"/>
<path d="M395 4050 c-4 -6 -2 -17 4 -23 15 -15 25 -2 13 19 -7 12 -11 13 -17
4z"/>
<path d="M532 3999 c2 -7 10 -15 17 -17 8 -3 12 1 9 9 -2 7 -10 15 -17 17 -8
3 -12 -1 -9 -9z"/>
<path d="M534 3928 c8 -47 24 -74 38 -60 10 10 -22 102 -35 102 -6 0 -7 -18
-3 -42z"/>
<path d="M488 3905 c-7 -8 14 -65 24 -65 4 0 8 6 8 13 -1 18 -25 58 -32 52z"/>
<path d="M5288 3873 c7 -3 16 -2 19 1 4 3 -2 6 -13 5 -11 0 -14 -3 -6 -6z"/>
<path d="M484 3823 c26 -71 43 -103 54 -103 19 0 15 15 -19 70 -31 50 -47 65
-35 33z"/>
<path d="M130 3780 c8 -5 20 -10 25 -10 6 0 3 5 -5 10 -8 5 -19 10 -25 10 -5
0 -3 -5 5 -10z"/>
<path d="M581 3774 c0 -11 3 -14 6 -6 3 7 2 16 -1 19 -3 4 -6 -2 -5 -13z"/>
<path d="M70 3765 c0 -9 6 -12 15 -9 8 4 15 7 15 9 0 2 -7 5 -15 9 -9 3 -15 0
-15 -9z"/>
<path d="M768 3773 c-10 -2 -18 -8 -18 -12 0 -11 79 -254 85 -259 2 -2 11 3
20 12 15 14 15 20 -4 73 -11 32 -28 88 -38 126 -10 37 -20 66 -23 66 -3 -1
-13 -3 -22 -6z"/>
<path d="M110 3751 c0 -10 24 -21 48 -21 11 0 6 6 -12 15 -33 18 -36 18 -36 6z"/>
<path d="M7 3713 c-4 -3 -6 -166 -5 -362 1 -196 3 -342 5 -326 11 83 29 55 33
-50 2 -58 2 -59 12 -25 5 19 12 52 15 73 3 20 8 39 12 41 3 2 62 -2 131 -9 69
-7 127 -11 129 -9 16 14 -124 580 -151 611 -13 14 -42 25 -86 33 -37 7 -72 17
-78 21 -6 5 -14 6 -17 2z"/>
<path d="M610 3655 c10 -33 27 -82 38 -110 l20 -50 13 34 c11 30 13 31 22 15
6 -10 13 -31 16 -46 5 -21 9 -25 21 -18 13 8 11 21 -14 93 -17 49 -37 89 -49
96 -18 12 -19 10 -15 -21 3 -18 9 -42 13 -52 6 -13 5 -17 -2 -13 -6 4 -14 18
-17 32 -4 14 -14 34 -24 44 -9 10 -22 26 -29 37 -6 10 -3 -8 7 -41z"/>
<path d="M530 3683 c0 -18 38 -64 44 -54 8 12 -21 61 -35 61 -5 0 -9 -3 -9 -7z"/>
<path d="M3265 3641 c-86 -26 -107 -36 -143 -66 -29 -24 -32 -32 -32 -81 0
-30 9 -80 20 -111 54 -154 72 -165 258 -161 72 2 132 0 132 -4 0 -4 -14 -15
-31 -24 -46 -23 -208 -138 -246 -173 -38 -35 -42 -70 -16 -126 21 -45 33 -44
174 7 53 19 145 47 205 62 60 14 123 31 139 36 17 5 46 12 66 15 34 6 36 5 49
-34 l13 -40 -50 -56 c-97 -109 -130 -207 -104 -312 25 -99 84 -143 190 -143
167 0 274 69 307 199 l11 46 84 0 84 0 1 -40 c1 -105 57 -201 142 -244 75 -38
254 -52 347 -26 19 6 20 1 21 -62 0 -87 33 -153 106 -217 121 -106 275 -147
493 -130 107 8 130 13 141 29 23 31 11 40 -62 42 -293 11 -474 97 -474 226 0
44 0 44 106 17 215 -55 392 -64 471 -23 36 19 38 22 41 75 3 48 0 58 -25 82
-36 36 -142 90 -224 113 -50 14 -99 17 -224 17 -142 0 -166 -3 -215 -23 -30
-12 -67 -34 -83 -49 l-27 -26 -108 11 c-118 11 -184 37 -234 90 -36 37 -46 84
-23 106 19 19 29 22 146 37 112 15 189 55 189 99 0 52 -68 95 -167 107 -109
12 -278 -49 -318 -114 l-20 -33 -75 5 c-41 2 -82 7 -91 10 -8 4 -25 27 -38 52
-12 26 -39 72 -61 105 l-38 58 71 44 c40 23 97 58 127 77 30 18 103 61 163 96
145 86 196 144 197 227 0 61 -24 97 -68 97 -39 0 -251 -152 -397 -284 -27 -25
-61 -50 -75 -54 -14 -5 -47 -17 -75 -27 -27 -10 -76 -21 -107 -24 -31 -4 -65
-14 -75 -22 -11 -9 -41 -17 -73 -18 -51 -2 -190 -21 -274 -36 -20 -4 -36 -5
-36 -2 0 13 105 77 250 152 150 78 155 81 158 114 5 52 -6 79 -39 96 -28 15
-34 15 -92 -5 -97 -34 -204 -51 -307 -51 -169 1 -230 25 -201 79 8 15 26 21
81 26 79 8 162 30 197 53 37 24 28 69 -25 126 -23 24 -33 27 -86 26 -34 0 -88
-8 -121 -18z m575 -591 c0 -11 -2 -20 -4 -20 -2 0 -6 9 -9 20 -3 11 -1 20 4
20 5 0 9 -9 9 -20z m160 -267 c80 -65 80 -69 35 -169 -25 -57 -62 -88 -115
-98 -48 -8 -74 12 -90 69 -21 75 4 155 73 233 11 12 22 22 24 22 2 0 35 -26
73 -57z m1481 -379 c68 -28 47 -62 -51 -84 -64 -14 -135 -12 -210 5 -94 22
-95 22 -79 41 49 59 234 80 340 38z"/>
<path d="M581 3601 c-14 -9 -13 -30 4 -101 4 -18 0 -15 -15 13 -11 20 -22 37
-24 37 -7 0 13 -88 29 -128 11 -27 23 -42 35 -42 12 0 27 -22 49 -70 17 -39
31 -74 31 -78 0 -8 109 -275 160 -392 94 -218 144 -326 152 -335 19 -19 -15
70 -127 335 -13 30 -42 100 -63 155 -22 55 -61 152 -87 215 -25 63 -57 151
-72 194 -14 44 -28 87 -31 95 -5 14 -3 14 11 2 9 -7 17 -24 17 -37 0 -12 5
-26 10 -29 13 -8 4 37 -18 83 -9 21 -18 29 -22 22 -5 -8 -9 -5 -12 8 -4 15 -2
19 8 15 19 -7 18 12 -2 31 -18 19 -15 18 -33 7z"/>
<path d="M2273 3572 c-24 -15 -43 -30 -43 -35 0 -4 17 -22 37 -40 20 -18 52
-56 71 -85 18 -30 36 -51 39 -48 10 10 -39 236 -51 235 -6 0 -30 -13 -53 -27z"/>
<path d="M520 3492 c0 -32 27 -128 51 -177 46 -97 143 -363 144 -395 1 -19 7
-44 14 -55 11 -17 12 -17 7 -2 -3 11 -8 31 -11 45 -4 20 0 17 14 -13 22 -45
26 -69 10 -59 -6 3 -4 -7 4 -22 8 -16 17 -36 21 -44 3 -8 4 -1 1 15 l-5 30 15
-30 c8 -16 39 -84 70 -150 30 -66 55 -115 55 -109 0 6 -25 73 -55 149 -31 75
-54 140 -51 142 2 3 12 -9 21 -26 24 -46 37 -28 15 22 -10 23 -25 59 -34 81
-13 31 -19 36 -30 27 -10 -9 -15 -8 -19 1 -3 7 -28 67 -55 133 -27 66 -73 185
-101 264 -29 79 -58 156 -66 170 l-14 26 -1 -23z"/>
<path d="M2151 3465 c-17 -20 -31 -38 -31 -41 0 -3 16 -22 35 -42 20 -20 59
-72 87 -114 44 -66 68 -93 68 -74 0 38 -106 306 -120 306 -4 0 -22 -16 -39
-35z"/>
<path d="M706 3403 c4 -16 44 -120 90 -233 62 -155 79 -206 68 -208 -20 -5
-19 -8 32 -123 50 -112 51 -115 60 -107 3 3 -8 39 -24 80 -17 40 -33 84 -36
98 -8 33 53 -95 90 -190 22 -57 30 -69 32 -50 1 14 -31 106 -74 210 -42 102
-89 217 -104 255 -15 39 -46 116 -69 172 -23 56 -41 107 -41 112 0 6 -7 11
-15 11 -12 0 -14 -7 -9 -27z"/>
<path d="M2077 3392 c-30 -31 -33 -48 -13 -71 15 -18 57 -96 82 -153 25 -58
33 -37 18 49 -12 65 -51 203 -58 203 -1 0 -14 -13 -29 -28z"/>
<path d="M520 3331 c8 -43 131 -382 160 -440 27 -54 32 -71 25 -83 -5 -7 -5
-10 0 -6 4 4 30 -36 57 -90 26 -53 45 -86 42 -72 -4 14 -12 36 -19 50 -7 14
-29 68 -50 120 -20 52 -43 109 -50 125 -17 38 -45 118 -97 270 -46 135 -58
165 -68 165 -4 0 -4 -17 0 -39z"/>
<path d="M1910 3140 l-22 -43 23 -41 c46 -83 207 -301 216 -293 2 2 -23 58
-56 123 -33 65 -74 155 -91 199 -17 44 -35 84 -40 89 -5 5 -18 -11 -30 -34z"/>
<path d="M445 3130 c-4 -12 -5 -24 -2 -27 3 -2 8 5 12 17 4 12 5 24 2 27 -3 2
-8 -5 -12 -17z"/>
<path d="M551 3134 c0 -11 3 -14 6 -6 3 7 2 16 -1 19 -3 4 -6 -2 -5 -13z"/>
<path d="M1836 3005 c-22 -51 -20 -66 10 -111 30 -45 84 -104 95 -104 5 0 -3
25 -17 55 -14 30 -34 85 -44 121 -11 37 -21 69 -24 71 -3 3 -12 -12 -20 -32z"/>
<path d="M601 3004 c0 -11 3 -14 6 -6 3 7 2 16 -1 19 -3 4 -6 -2 -5 -13z"/>
<path d="M4899 2992 c-27 -24 -30 -32 -25 -60 9 -40 65 -89 111 -98 79 -15
148 20 148 75 0 60 -70 111 -152 111 -41 0 -56 -5 -82 -28z"/>
<path d="M920 2975 c0 -4 40 -96 76 -172 25 -56 38 -73 54 -73 11 0 20 2 20 5
0 3 -15 36 -34 73 -18 37 -41 88 -51 114 -12 34 -23 47 -41 51 -13 2 -24 3
-24 2z"/>
<path d="M1040 2977 c0 -1 36 -76 80 -165 56 -113 84 -160 93 -155 7 4 22 6
35 4 12 -1 22 -1 22 2 0 2 -24 46 -54 98 -29 52 -64 118 -77 147 -18 40 -29
52 -46 52 -12 0 -25 5 -28 10 -6 9 -25 14 -25 7z"/>
<path d="M2410 2790 c0 -6 11 -32 23 -58 47 -94 86 -212 107 -324 12 -63 21
-68 72 -45 l27 12 -34 83 c-47 115 -107 238 -145 295 -30 45 -50 59 -50 37z"/>
<path d="M2593 2690 c3 -14 20 -63 38 -110 18 -47 35 -110 38 -140 7 -60 5
-59 79 -44 17 3 32 11 32 16 0 14 -89 159 -146 238 -31 43 -44 57 -41 40z"/>
<path d="M1711 2659 c-14 -40 -14 -124 -1 -149 6 -10 50 -45 99 -78 293 -196
728 -245 982 -110 68 35 124 88 94 88 -10 0 -41 -11 -69 -24 -88 -42 -179 -59
-316 -59 -106 0 -140 4 -224 27 -169 47 -337 144 -476 275 -36 33 -68 61 -71
61 -4 0 -12 -14 -18 -31z"/>
<path d="M1070 2645 c0 -3 12 -28 26 -56 14 -28 20 -48 15 -44 -6 3 -21 25
-33 48 -39 76 -30 21 11 -64 38 -82 103 -170 115 -158 4 4 1 48 -5 99 -10 78
-17 99 -43 134 -21 27 -41 42 -59 44 -15 2 -27 1 -27 -3z"/>
<path d="M2000 2598 c0 -10 9 -42 21 -73 15 -40 29 -59 50 -71 45 -23 52 -13
19 26 -17 19 -44 58 -60 85 -16 28 -30 42 -30 33z"/>
<path d="M2124 2568 c4 -24 17 -69 29 -100 18 -47 28 -60 58 -74 57 -25 64
-14 25 37 -19 26 -51 76 -71 113 -20 36 -39 66 -42 66 -3 0 -3 -19 1 -42z"/>
<path d="M2421 2490 c1 -32 25 -131 32 -130 4 0 14 0 22 0 22 0 18 19 -20 85
-19 33 -35 53 -34 45z"/>
<path d="M1057 2427 c-20 -48 -41 -75 -77 -100 l-24 -17 24 0 c14 0 40 9 59
21 18 11 36 17 39 14 9 -9 -38 -147 -65 -189 -39 -60 -3 -37 39 25 20 30 44
79 52 110 18 61 21 139 7 139 -5 0 -13 9 -16 20 -9 30 -18 25 -38 -23z"/>
<path d="M1652 2422 c-8 -26 -9 -49 -2 -73 16 -54 12 -78 -16 -104 l-25 -23
54 -54 c107 -105 198 -128 372 -95 119 22 205 21 322 -4 114 -25 175 -20 243
17 51 28 99 89 83 105 -6 6 -57 7 -144 2 -385 -23 -643 46 -822 218 -28 27
-51 49 -52 49 -1 0 -7 -17 -13 -38z m194 -144 c33 -19 87 -44 120 -56 73 -25
221 -52 287 -52 27 0 46 -4 43 -9 -3 -4 -83 -11 -178 -15 -181 -7 -269 3 -341
40 -46 24 -26 26 39 3 68 -24 214 -38 214 -21 0 6 -19 16 -42 22 -104 26 -189
74 -275 153 -66 60 -53 77 15 20 31 -28 84 -66 118 -85z"/>
<path d="M1136 2273 c-8 -116 -32 -235 -65 -323 -28 -71 -1 -42 40 45 46 98
76 309 53 369 -14 36 -22 10 -28 -91z"/>
<path d="M1204 2288 c-6 -7 -16 -87 -22 -178 -11 -157 -42 -334 -61 -353 -11
-11 -230 92 -346 164 -46 28 -89 48 -95 44 -8 -5 -8 -10 0 -20 8 -10 8 -19 0
-35 -6 -11 -8 -26 -4 -33 5 -8 3 -8 -9 1 -26 21 -42 3 -18 -19 12 -11 21 -25
21 -32 0 -8 -3 -8 -8 -2 -11 16 -62 46 -62 37 0 -23 212 -215 285 -258 45 -26
50 -48 6 -24 -34 18 -24 7 29 -34 28 -21 49 -41 46 -43 -2 -3 -58 28 -123 67
-118 71 -200 135 -196 151 2 5 -6 9 -18 9 -22 0 -21 -5 18 -57 17 -24 22 -39
17 -60 l-7 -28 22 23 c18 18 24 20 35 10 11 -11 10 -20 -4 -54 -10 -23 -23
-50 -29 -60 -5 -11 -13 -40 -16 -67 -4 -29 -10 -45 -17 -41 -10 6 -9 24 7 124
11 67 -12 7 -45 -115 -18 -66 -47 -161 -66 -211 -19 -51 -34 -99 -34 -108 0
-9 -6 -16 -12 -16 -14 0 -186 36 -364 75 -61 14 -116 25 -123 25 -8 0 -11
-157 -11 -585 l0 -585 123 0 124 0 16 53 c9 28 21 78 27 109 13 65 28 73 49
25 8 -17 17 -34 20 -37 3 -3 21 -35 40 -72 19 -37 40 -70 48 -72 12 -5 -16 53
-101 209 -22 41 -26 58 -21 92 3 24 10 45 16 48 13 9 11 63 -3 67 -8 3 -6 20
7 61 18 59 45 78 45 32 0 -18 4 -23 16 -18 14 5 16 0 10 -33 -3 -21 -6 -54 -6
-73 1 -18 -4 -39 -10 -47 -7 -7 -9 -17 -6 -23 8 -12 -21 -41 -40 -41 -8 0 -14
-7 -14 -15 0 -15 45 -65 60 -65 4 0 17 -3 27 -7 16 -6 16 -5 4 10 -7 9 -22 17
-32 17 -11 0 -19 5 -19 10 0 6 18 10 41 10 31 0 40 -3 36 -14 -3 -8 5 -24 19
-37 19 -17 24 -19 24 -7 0 9 -7 21 -15 28 -8 7 -15 17 -15 23 0 18 56 -61 105
-148 l48 -85 293 0 c223 0 293 3 296 12 4 10 19 10 69 2 62 -11 463 -18 427
-7 -10 2 -18 8 -18 13 0 4 9 6 20 3 11 -3 20 -9 20 -14 0 -5 845 -9 1990 -9
l1990 0 -2 297 -3 297 -80 19 c-82 18 -239 52 -495 106 -80 17 -176 38 -215
46 -38 9 -239 49 -445 89 -330 65 -1064 219 -1175 246 -22 6 -83 19 -135 30
-111 24 -694 170 -825 206 -272 76 -773 235 -950 301 -174 65 -236 96 -229
112 28 68 56 160 69 235 28 164 15 352 -21 304z m-349 -808 c3 -5 -1 -10 -9
-10 -9 0 -16 5 -16 10 0 6 4 10 9 10 6 0 13 -4 16 -10z m-215 -194 c0 -14 -4
-27 -9 -30 -4 -3 -8 8 -7 24 1 36 16 41 16 6z m368 -168 c61 -28 112 -54 112
-58 0 -8 -228 41 -282 60 -39 15 -45 28 -28 61 12 22 4 25 198 -63z m-463
-159 c-14 -52 -30 -112 -36 -134 -6 -22 -15 -47 -19 -56 -5 -9 -4 -22 0 -30 6
-9 3 -20 -8 -32 -9 -10 -16 -33 -16 -52 0 -21 -3 -30 -8 -22 -4 6 -8 8 -8 2
-1 -5 -5 -29 -9 -52 -5 -24 -4 -40 0 -37 12 7 11 -7 -1 -26 -9 -13 -11 -13
-20 0 -11 16 -6 62 15 125 8 22 16 51 19 65 20 91 78 295 86 300 4 3 12 19 16
35 4 16 9 25 11 18 2 -6 -8 -53 -22 -104z m95 57 c0 -3 -4 -8 -10 -11 -5 -3
-10 -1 -10 4 0 6 5 11 10 11 6 0 10 -2 10 -4z m250 -51 c41 -8 77 -19 81 -23
13 -15 19 -102 7 -102 -7 0 -5 -5 4 -12 9 -7 21 -31 28 -53 7 -22 20 -50 28
-62 9 -15 10 -23 3 -23 -6 0 -11 -8 -11 -17 0 -15 2 -16 10 -3 8 13 11 13 27
-2 16 -17 16 -18 -2 -19 -13 0 -15 -3 -6 -6 10 -4 11 -7 1 -13 -16 -10 -4 -29
27 -41 33 -12 18 -32 -21 -26 -17 2 -43 -2 -58 -9 -15 -8 -35 -11 -45 -8 -11
4 -14 3 -7 -3 6 -4 10 -18 9 -31 -1 -16 3 -21 14 -17 9 2 22 1 30 -4 11 -7 9
-10 -8 -16 -12 -3 -19 -10 -16 -15 6 -10 -34 -25 -42 -16 -4 3 2 6 13 7 16 0
16 2 -4 10 -13 5 -20 13 -17 19 4 6 -10 10 -34 10 -33 0 -41 -4 -41 -18 0 -41
-59 -60 -61 -19 -1 12 -1 28 0 35 2 14 -11 16 -24 3 -17 -15 -55 -23 -55 -12
0 6 10 11 23 11 32 1 2 16 -45 23 -32 5 -37 3 -40 -16 -2 -12 -7 -21 -13 -19
-12 3 -14 25 -2 33 5 3 2 9 -7 12 -10 4 -16 1 -16 -8 0 -9 -10 -15 -24 -15
-29 0 -44 -17 -52 -61 -4 -19 -11 -39 -16 -46 -5 -7 -7 -17 -4 -22 4 -5 2 -12
-4 -16 -5 -3 -10 3 -10 14 0 12 -4 21 -10 21 -5 0 -10 -12 -10 -26 0 -22 -2
-25 -15 -14 -12 10 -15 10 -15 -1 -1 -20 -37 -65 -46 -57 -4 4 -2 13 4 21 6 7
13 25 16 41 3 15 10 34 17 42 6 7 9 24 5 37 -3 14 1 33 10 46 9 12 13 28 10
36 -3 8 -1 15 5 15 5 0 14 10 20 23 8 18 9 16 5 -15 -5 -40 3 -47 27 -23 13
12 16 12 20 1 4 -10 14 -12 29 -8 12 3 17 7 10 10 -20 6 -13 22 11 23 l22 0
-23 10 c-13 5 -20 13 -17 19 3 5 8 20 10 32 3 13 9 24 14 26 6 2 7 10 4 18 -3
8 1 14 11 14 10 0 13 -6 10 -15 -5 -11 -2 -13 9 -9 9 3 13 12 10 20 -3 9 2 14
18 15 14 0 18 3 10 6 -11 5 -11 7 0 14 10 6 8 9 -8 9 -12 0 -25 -5 -29 -12 -5
-8 -10 -5 -15 9 -4 12 5 70 24 148 25 103 34 129 51 135 25 11 86 6 186 -15z
m314 -70 c63 -13 136 -31 161 -40 26 -8 51 -12 57 -9 6 4 17 -1 25 -11 7 -11
13 -15 13 -11 0 5 6 4 13 -1 18 -15 57 -23 57 -12 0 5 5 9 11 9 5 0 7 -5 3
-12 -5 -8 -2 -9 10 -5 9 4 15 3 12 -1 -2 -4 29 -18 71 -31 53 -17 71 -26 61
-33 -9 -6 -6 -8 12 -6 36 3 104 -32 90 -46 -8 -8 -13 -8 -18 0 -4 6 -26 14
-49 18 -39 6 -43 4 -43 -14 0 -11 6 -20 13 -21 8 0 7 -2 -2 -6 -9 -3 -25 8
-42 28 -15 19 -30 31 -34 28 -3 -4 1 -14 10 -22 18 -19 19 -34 3 -40 -12 -4
11 -17 54 -31 24 -7 12 -36 -14 -36 -18 0 -19 -2 -7 -17 13 -15 12 -16 -8 -11
-13 4 -26 2 -29 -3 -3 -5 -10 -6 -16 -3 -25 15 -89 3 -127 -23 -45 -31 -51
-43 -22 -43 11 0 23 -5 27 -12 5 -8 -2 -9 -25 -5 -18 4 -40 2 -50 -5 -10 -6
-26 -8 -35 -5 -24 10 0 57 30 57 30 0 55 10 49 20 -3 5 5 16 17 24 12 9 19 16
15 16 -3 0 -2 11 3 25 8 20 6 25 -6 25 -8 0 -13 3 -11 8 6 9 -81 8 -90 -2 -4
-4 -1 -11 7 -16 22 -14 -15 -13 -41 1 -19 9 -19 9 -10 -10 15 -27 14 -31 -9
-31 -12 0 -20 -7 -21 -17 0 -11 -3 -13 -6 -5 -10 25 -33 12 -33 -18 0 -34 -15
-40 -25 -10 -4 11 -11 17 -17 14 -7 -4 -8 -2 -4 4 4 7 14 12 22 12 8 0 13 3
13 8 -4 27 3 34 29 28 15 -3 21 -3 15 0 -17 8 -16 24 1 24 8 0 17 7 20 16 8
20 8 19 -21 28 -19 6 -23 3 -23 -13 0 -12 -4 -21 -10 -21 -5 0 -10 7 -10 16 0
18 23 44 39 44 6 0 11 7 11 16 0 8 4 13 9 10 4 -3 13 5 19 18 9 21 8 23 -9 19
-10 -3 -19 -1 -19 5 0 11 -39 24 -51 16 -4 -2 3 -15 17 -29 34 -34 30 -44 -15
-42 -22 1 -37 -1 -35 -5 6 -10 -9 -10 -32 -1 -16 6 -16 7 2 14 18 7 17 8 -3 8
-12 1 -25 -3 -28 -9 -3 -5 -27 -10 -53 -9 -35 0 -42 3 -27 9 13 6 15 9 5 9
-13 1 -13 2 0 11 12 8 12 10 -5 11 -20 0 -20 1 -1 8 19 7 19 8 -3 14 -13 3
-20 10 -16 16 3 6 -2 11 -12 12 -12 0 -14 2 -4 6 11 5 11 7 0 14 -11 7 -11 9
-1 9 22 0 2 20 -21 21 -16 0 -18 2 -7 7 22 10 24 40 3 45 -13 3 -11 5 7 7 23
1 23 2 5 10 -41 18 42 10 159 -15z m486 -119 c8 -4 -1 -4 -20 -1 -19 3 -39 10
-44 15 -10 10 19 3 64 -14z m-563 -102 c-3 -3 -12 -4 -19 -1 -8 3 -5 6 6 6 11
1 17 -2 13 -5z m128 -50 c0 -17 -7 -29 -18 -33 -10 -4 -17 -11 -16 -16 1 -6
-5 -11 -13 -13 -27 -5 -14 32 13 39 13 4 20 7 16 8 -7 1 9 41 16 41 2 0 3 -12
2 -26z m-152 -21 c-7 -2 -19 -2 -25 0 -7 3 -2 5 12 5 14 0 19 -2 13 -5z m729
-4 c29 -6 60 -14 68 -16 8 -3 28 -7 44 -8 16 -2 31 -7 35 -13 3 -5 17 -9 31
-8 14 1 39 -5 55 -13 l30 -16 -35 -3 c-19 -2 -36 1 -38 7 -6 18 -18 12 -30
-14 -6 -14 -16 -25 -22 -25 -6 0 -8 5 -5 10 3 6 0 10 -7 10 -9 0 -9 3 2 10 13
8 12 10 -4 10 -15 0 -16 3 -6 15 10 13 9 15 -9 15 -12 0 -34 -8 -48 -17 -15
-10 -24 -13 -20 -6 4 6 3 14 -3 18 -6 4 -8 9 -6 13 2 4 -9 7 -25 8 -16 1 -29
-3 -29 -7 0 -5 6 -8 13 -6 6 1 12 -4 12 -10 0 -7 -3 -13 -7 -13 -5 0 -14 0
-22 0 -17 0 -28 37 -12 44 6 2 3 5 -6 5 -10 1 -18 -6 -18 -14 0 -14 -3 -13
-25 1 -52 34 -14 44 87 23z m-662 -55 c0 -22 -2 -23 -20 -12 -23 15 -27 33 -6
25 11 -4 13 -1 9 10 -4 11 -2 14 5 9 7 -4 12 -18 12 -32z m570 -1 c0 -21 -3
-24 -9 -14 -5 8 -7 20 -4 28 8 21 13 15 13 -14z m-513 -20 c12 -11 19 -53 8
-53 -20 0 -55 26 -50 38 3 7 5 18 5 23 0 12 21 7 37 -8z m504 -23 c29 0 59
-18 59 -35 0 -8 -4 -15 -10 -15 -5 0 -10 -6 -10 -14 0 -8 -14 -19 -31 -25 -39
-13 -42 -14 -34 -1 3 6 -1 10 -10 10 -9 0 -13 -4 -10 -10 3 -5 1 -10 -4 -10
-6 0 -11 7 -11 16 0 13 7 15 38 9 33 -6 35 -5 19 7 -17 13 -17 15 -3 27 22 19
10 31 -23 25 -33 -7 -51 11 -21 21 11 3 21 12 21 18 1 7 3 4 6 -5 2 -10 13
-18 24 -18z m-610 -23 c-13 -13 -15 1 -4 30 7 17 8 17 11 -1 2 -10 -1 -23 -7
-29z m199 33 c0 -5 -5 -10 -11 -10 -5 0 -7 5 -4 10 3 6 8 10 11 10 2 0 4 -4 4
-10z m490 -10 c0 -5 -5 -10 -11 -10 -5 0 -7 5 -4 10 3 6 8 10 11 10 2 0 4 -4
4 -10z m-1110 -10 c0 -5 -4 -10 -10 -10 -5 0 -10 5 -10 10 0 6 5 10 10 10 6 0
10 -4 10 -10z m-80 -10 c0 -5 -4 -10 -10 -10 -5 0 -10 5 -10 10 0 6 5 10 10
10 6 0 10 -4 10 -10z m149 -74 c-11 -31 -15 -33 -35 -24 -13 6 -21 14 -19 18
3 4 -4 10 -15 13 -11 3 -20 1 -20 -4 0 -5 -4 -9 -10 -9 -5 0 -10 9 -10 21 0
14 5 19 15 16 8 -4 17 -2 20 3 3 5 -3 11 -12 14 -10 3 3 3 30 0 35 -4 47 -2
47 8 0 8 5 6 11 -5 7 -12 7 -27 -2 -51z m321 44 c0 -5 -9 -12 -20 -15 -30 -10
-24 -22 10 -21 16 1 30 5 30 9 0 5 4 5 10 2 5 -3 21 6 34 22 27 31 37 28 40
-11 1 -27 16 -37 16 -11 0 16 24 19 55 5 19 -8 19 -9 -3 -9 -13 -1 -20 -5 -17
-11 3 -5 -2 -10 -11 -10 -14 0 -15 -3 -6 -12 10 -10 19 -9 45 1 17 7 42 14 54
16 12 2 27 6 33 10 6 4 17 1 25 -5 11 -9 18 -10 29 -1 10 8 20 8 41 -3 25 -13
25 -15 8 -24 -15 -9 -15 -12 -3 -16 42 -13 41 -14 -4 -11 -27 2 -53 10 -57 17
-7 10 -11 10 -21 0 -6 -6 -20 -12 -30 -12 -10 0 -18 -4 -18 -10 0 -5 7 -10 15
-10 8 0 15 -4 15 -10 0 -5 -7 -10 -15 -10 -8 0 -14 -5 -12 -12 1 -7 -7 -12
-18 -13 -11 0 -26 -4 -34 -9 -9 -6 -12 -5 -7 2 3 6 -6 13 -25 17 -20 5 -29 11
-25 21 3 8 -1 14 -8 14 -8 0 -17 -6 -19 -12 -3 -7 -6 -3 -6 10 -1 22 -21 33
-21 11 0 -7 -12 -9 -36 -5 -20 4 -41 3 -48 -3 -20 -17 -54 -2 -48 21 4 18 3
19 -17 9 -15 -9 -21 -9 -21 -1 0 7 -6 10 -12 7 -7 -2 -13 -10 -13 -18 0 -15
-7 -19 -30 -19 -8 0 -15 5 -15 11 0 5 4 8 8 5 5 -3 16 3 25 12 8 9 23 23 31
30 8 6 13 19 10 27 -4 10 -2 14 7 10 8 -2 25 4 39 14 24 19 40 19 40 1z m504
14 c18 -7 12 -24 -10 -24 -8 0 -14 7 -14 15 0 17 2 18 24 9z m101 -9 c-31 -13
-50 -11 -40 6 4 5 21 9 38 8 l32 -1 -30 -13z m185 3 c0 -11 -12 -10 -30 2 -12
7 -10 9 8 7 12 0 22 -5 22 -9z m-1236 -19 c-3 -5 -10 -7 -15 -3 -5 3 -7 10 -3
15 3 5 10 7 15 3 5 -3 7 -10 3 -15z m1313 5 c-3 -3 -12 -4 -19 -1 -8 3 -5 6 6
6 11 1 17 -2 13 -5z m-637 -14 c0 -5 -8 -10 -17 -10 -15 0 -16 2 -3 10 19 12
20 12 20 0z m-507 -30 c-19 -22 -26 -21 -17 4 3 9 12 16 20 16 11 0 10 -4 -3
-20z m794 14 c-3 -3 -12 -4 -19 -1 -8 3 -5 6 6 6 11 1 17 -2 13 -5z m348 -4
c-3 -5 -14 -10 -23 -10 -15 0 -15 2 -2 10 20 13 33 13 25 0z m-1255 -20 c0 -5
-4 -10 -10 -10 -5 0 -10 5 -10 10 0 6 5 10 10 10 6 0 10 -4 10 -10z m1123 -17
c-7 -3 -9 -11 -6 -19 4 -10 -2 -14 -21 -14 -14 0 -26 -4 -26 -8 0 -5 -12 -7
-27 -5 -16 1 -43 5 -61 7 -17 2 -35 0 -38 -5 -3 -5 -10 -7 -15 -4 -5 4 -9 -1
-9 -9 0 -9 -7 -16 -16 -16 -8 0 -13 -4 -10 -9 3 -5 -1 -12 -10 -15 -31 -12
-34 -5 -9 21 29 32 31 43 10 43 -8 0 -15 -7 -15 -15 0 -8 -5 -15 -11 -15 -5 0
-7 -4 -4 -10 3 -6 -1 -10 -10 -10 -12 0 -14 4 -5 19 13 25 13 27 -6 46 -9 9
-13 19 -10 23 4 3 11 1 15 -6 5 -9 17 -11 36 -6 22 5 26 4 20 -6 -5 -9 -4 -11
4 -6 6 4 9 11 7 15 -3 4 17 8 44 7 30 -1 50 -6 50 -12 0 -7 15 -10 38 -9 44 3
72 13 72 27 0 5 5 6 12 2 9 -6 9 -9 1 -11z m336 1 c2 -2 -25 -4 -60 -3 -45 1
-57 3 -39 8 23 7 89 3 99 -5z m-1312 0 c-3 -3 -12 -4 -19 -1 -8 3 -5 6 6 6 11
1 17 -2 13 -5z m1369 -23 c-3 -4 2 -15 12 -24 13 -12 26 -14 52 -8 40 8 70 4
70 -10 0 -5 -21 -9 -46 -9 -27 0 -43 -4 -39 -10 3 -5 -3 -10 -15 -10 -12 0
-19 4 -15 9 9 16 -30 32 -43 19 -9 -9 -12 -9 -12 -1 0 6 6 14 13 16 9 4 9 8
-2 15 -11 8 -10 11 5 15 10 2 20 5 22 6 2 0 1 -3 -2 -8z m89 -1 c3 -5 2 -10
-4 -10 -5 0 -13 5 -16 10 -3 6 -2 10 4 10 5 0 13 -4 16 -10z m-1572 -17 c-8
-3 -11 -14 -7 -28 4 -18 1 -24 -19 -29 -14 -3 -36 -1 -49 4 -20 9 -19 10 10 6
32 -6 33 -5 36 37 1 13 28 28 36 19 3 -2 -1 -7 -7 -9z m1184 -10 c0 -14 -2
-21 -6 -14 -4 6 -15 9 -24 5 -9 -3 -17 -2 -17 4 0 6 -10 8 -22 4 -14 -3 -19
-2 -14 7 4 6 11 9 15 7 4 -3 13 -1 21 5 27 17 45 10 47 -18z m243 17 c0 -5 -7
-10 -15 -10 -8 0 -15 5 -15 10 0 6 7 10 15 10 8 0 15 -4 15 -10z m-67 -7 c-7
-2 -19 -2 -25 0 -7 3 -2 5 12 5 14 0 19 -2 13 -5z m-1423 -23 c0 -5 -2 -10 -4
-10 -3 0 -8 5 -11 10 -3 6 -1 10 4 10 6 0 11 -4 11 -10z m-160 -10 c0 -5 -4
-10 -10 -10 -5 0 -10 5 -10 10 0 6 5 10 10 10 6 0 10 -4 10 -10z m910 6 c0 -3
-4 -8 -10 -11 -5 -3 -10 -1 -10 4 0 6 5 11 10 11 6 0 10 -2 10 -4z m100 -21
c0 -23 -24 -45 -36 -33 -7 7 17 58 28 58 4 0 8 -11 8 -25z m585 15 c-3 -5 -13
-10 -21 -10 -8 0 -12 5 -9 10 3 6 13 10 21 10 8 0 12 -4 9 -10z m-65 -8 c0 -5
-13 -7 -30 -4 -16 2 -30 6 -30 8 0 2 14 4 30 4 17 0 30 -4 30 -8z m270 -6 c0
-2 -7 -7 -16 -10 -8 -3 -12 -2 -9 4 6 10 25 14 25 6z m-181 -32 c9 -9 -5 -12
-31 -7 -16 3 -28 10 -28 15 0 9 49 3 59 -8z m-286 -1 c-7 -2 -19 -2 -25 0 -7
3 -2 5 12 5 14 0 19 -2 13 -5z m412 -11 c-3 -3 -11 0 -18 7 -9 10 -8 11 6 5
10 -3 15 -9 12 -12z m-971 -24 c-3 -5 -12 -4 -20 3 -19 16 -18 18 6 12 11 -3
17 -9 14 -15z m66 -3 c0 -8 -4 -15 -10 -15 -5 0 -10 7 -10 15 0 8 5 15 10 15
6 0 10 -7 10 -15z m680 -1 c0 -2 -9 -4 -20 -4 -11 0 -20 4 -20 9 0 5 9 7 20 4
11 -3 20 -7 20 -9z m87 -10 c-3 -3 -12 -4 -19 -1 -8 3 -5 6 6 6 11 1 17 -2 13
-5z m77 -3 c3 -5 32 -12 63 -17 32 -4 61 -8 66 -10 4 -1 16 -2 28 -3 11 0 18
-5 14 -10 -7 -12 -46 -11 -62 2 -9 6 -13 6 -13 -1 0 -11 -71 -4 -80 8 -3 3
-13 9 -22 13 -10 3 -18 11 -18 17 0 12 17 13 24 1z m206 -51 c-20 -13 -33 -13
-25 0 3 6 14 10 23 10 15 0 15 -2 2 -10z m-1040 -75 c-7 -8 -17 -15 -23 -15
-6 0 -2 7 9 15 25 19 30 19 14 0z m240 -16 c33 4 14 -16 -20 -21 -23 -4 -23
-5 10 -15 24 -8 28 -11 14 -12 -28 -1 -70 32 -60 48 4 6 13 8 19 4 7 -4 23 -6
37 -4z m64 -7 c2 -4 0 -14 -5 -22 -8 -13 -10 -13 -18 0 -10 15 -6 30 9 30 5 0
11 -4 14 -8z"/>
<path d="M800 825 c0 -8 5 -15 10 -15 6 0 10 7 10 15 0 8 -4 15 -10 15 -5 0
-10 -7 -10 -15z"/>
<path d="M787 726 c-6 -15 1 -26 15 -26 4 0 8 9 8 20 0 23 -15 27 -23 6z"/>
<path d="M718 705 c-3 -6 -8 -22 -12 -37 -5 -23 -3 -25 15 -21 16 4 17 8 7 14
-10 6 -8 9 7 9 12 0 16 3 9 8 -6 4 -13 14 -16 22 -2 7 -7 10 -10 5z"/>
<path d="M875 660 c-3 -5 -1 -10 4 -10 6 0 11 5 11 10 0 6 -2 10 -4 10 -3 0
-8 -4 -11 -10z"/>
<path d="M953 643 c9 -2 23 -2 30 0 6 3 -1 5 -18 5 -16 0 -22 -2 -12 -5z"/>
<path d="M713 593 c9 -2 23 -2 30 0 6 3 -1 5 -18 5 -16 0 -22 -2 -12 -5z"/>
<path d="M948 593 c7 -3 16 -2 19 1 4 3 -2 6 -13 5 -11 0 -14 -3 -6 -6z"/>
<path d="M615 580 c-7 -12 2 -12 30 0 19 8 19 9 -2 9 -12 1 -25 -3 -28 -9z"/>
<path d="M945 570 c-3 -5 -2 -10 4 -10 5 0 13 5 16 10 3 6 2 10 -4 10 -5 0
-13 -4 -16 -10z"/>
<path d="M718 560 c19 -4 38 -12 44 -18 14 -14 38 -4 38 17 0 14 -2 14 -10 1
-8 -12 -13 -13 -30 -2 -11 6 -32 12 -47 11 -26 -1 -26 -1 5 -9z"/>
<path d="M715 530 c3 -5 16 -10 28 -9 21 0 21 1 2 9 -28 12 -37 12 -30 0z"/>
<path d="M495 481 c-3 -5 -1 -12 5 -16 5 -3 10 1 10 9 0 18 -6 21 -15 7z"/>
<path d="M470 401 c-13 -25 -13 -34 0 -26 16 10 32 45 21 45 -6 0 -15 -9 -21
-19z"/>
<path d="M1305 810 c-3 -5 1 -10 10 -10 9 0 13 5 10 10 -3 6 -8 10 -10 10 -2
0 -7 -4 -10 -10z"/>
<path d="M1524 777 c-7 -8 -3 -18 18 -35 33 -28 47 -25 20 4 -10 11 -17 25
-14 32 5 15 -9 15 -24 -1z"/>
<path d="M1595 750 c3 -5 14 -10 23 -10 15 0 15 2 2 10 -20 13 -33 13 -25 0z"/>
<path d="M1240 735 c-14 -16 -10 -18 14 -9 9 3 16 10 16 15 0 14 -16 11 -30
-6z"/>
<path d="M1332 688 c6 -17 38 -23 38 -8 0 6 -4 8 -10 5 -5 -3 -10 -1 -10 4 0
6 -5 11 -11 11 -6 0 -9 -6 -7 -12z"/>
<path d="M1597 683 c-13 -12 -7 -23 11 -22 10 0 12 3 4 6 -6 2 -10 9 -6 14 6
10 0 12 -9 2z"/>
<path d="M1440 660 c20 -13 33 -13 25 0 -3 6 -14 10 -23 10 -15 0 -15 -2 -2
-10z"/>
<path d="M1156 414 c-9 -23 -2 -28 13 -10 7 8 8 17 3 20 -6 3 -13 -1 -16 -10z"/>
<path d="M1050 360 c0 -5 5 -10 11 -10 5 0 7 5 4 10 -3 6 -8 10 -11 10 -2 0
-4 -4 -4 -10z"/>
<path d="M625 1980 c-9 -17 -11 -30 -5 -30 5 0 10 5 10 11 0 5 3 8 8 6 4 -3
14 2 22 11 13 14 12 15 -4 9 -14 -5 -17 -3 -12 8 10 26 -3 16 -19 -15z"/>
<path d="M0 1799 c0 -16 5 -20 27 -17 17 2 29 10 31 21 3 13 -3 17 -27 17 -25
0 -31 -4 -31 -21z"/>
<path d="M506 145 c4 -8 8 -15 10 -15 2 0 4 7 4 15 0 8 -4 15 -10 15 -5 0 -7
-7 -4 -15z"/>
<path d="M422 110 c7 -21 15 -27 34 -26 13 0 24 4 24 7 0 13 -27 37 -47 42
-19 4 -20 2 -11 -23z"/>
<path d="M450 67 c0 -17 24 -67 32 -67 6 0 8 7 4 15 -3 8 -1 15 4 15 5 0 11
-8 14 -17 2 -10 4 -5 3 12 -1 19 -7 30 -17 30 -8 0 -21 4 -27 8 -7 5 -13 6
-13 4z"/>
</g>
</svg>
